<svg width="24" height="22" viewBox="0 0 24 22" fill="none" xmlns="http://www.w3.org/2000/svg">
<path d="M12 7.33317C13.1 7.33317 14 6.50817 14 5.49984C14 4.4915 13.1 3.6665 12 3.6665C10.9 3.6665 10 4.4915 10 5.49984C10 6.50817 10.9 7.33317 12 7.33317ZM12 9.1665C10.9 9.1665 10 9.9915 10 10.9998C10 12.0082 10.9 12.8332 12 12.8332C13.1 12.8332 14 12.0082 14 10.9998C14 9.9915 13.1 9.1665 12 9.1665ZM12 14.6665C10.9 14.6665 10 15.4915 10 16.4998C10 17.5082 10.9 18.3332 12 18.3332C13.1 18.3332 14 17.5082 14 16.4998C14 15.4915 13.1 14.6665 12 14.6665Z" fill="#929292"/>
</svg>
