<svg width="111" height="23" viewBox="0 0 111 23" fill="none" xmlns="http://www.w3.org/2000/svg">
<path d="M39.935 9.025L37.52 15.64C37.19 16.41 36.89 17.03 36.62 17.5C36.35 17.98 36.05 18.325 35.72 18.535C35.4 18.745 34.98 18.85 34.46 18.85C33.99 18.85 33.585 18.725 33.245 18.475C32.915 18.225 32.75 17.91 32.75 17.53C32.75 17.18 32.85 16.89 33.05 16.66C33.26 16.44 33.53 16.33 33.86 16.33C34.15 16.33 34.37 16.395 34.52 16.525C34.68 16.655 34.76 16.85 34.76 17.11C34.76 17.21 34.705 17.345 34.595 17.515C34.495 17.695 34.32 17.785 34.07 17.785C34.09 17.885 34.15 17.95 34.25 17.98C34.35 18.02 34.435 18.04 34.505 18.04C34.645 18.04 34.775 18.01 34.895 17.95C35.015 17.9 35.14 17.775 35.27 17.575C35.41 17.375 35.56 17.07 35.72 16.66L35.9 16.105L32.885 9.025L31.985 8.74V7.9H35.795L35.915 8.74L34.85 9.025L36.695 14.23H36.755L38.42 9.025L37.55 8.74V7.9H40.85V8.74L39.935 9.025ZM49.0855 11.95C49.0855 12.59 48.9905 13.195 48.8005 13.765C48.6205 14.325 48.3555 14.795 48.0055 15.175C47.6755 15.525 47.2755 15.775 46.8055 15.925C46.3455 16.075 45.8055 16.15 45.1855 16.15C44.5655 16.15 44.0205 16.075 43.5505 15.925C43.0905 15.775 42.6955 15.525 42.3655 15.175C42.0155 14.795 41.7455 14.325 41.5555 13.765C41.3755 13.195 41.2855 12.59 41.2855 11.95C41.2855 11.31 41.3755 10.705 41.5555 10.135C41.7455 9.565 42.0155 9.095 42.3655 8.725C42.6955 8.375 43.0905 8.125 43.5505 7.975C44.0205 7.825 44.5655 7.75 45.1855 7.75C45.8055 7.75 46.3455 7.825 46.8055 7.975C47.2755 8.125 47.6755 8.375 48.0055 8.725C48.3555 9.095 48.6205 9.565 48.8005 10.135C48.9905 10.705 49.0855 11.31 49.0855 11.95ZM43.8205 14.545C43.9605 14.745 44.1405 14.895 44.3605 14.995C44.5905 15.095 44.8655 15.145 45.1855 15.145C45.5055 15.145 45.7805 15.095 46.0105 14.995C46.2405 14.895 46.4205 14.745 46.5505 14.545C46.8705 14.055 47.0305 13.19 47.0305 11.95C47.0305 11.32 46.9905 10.79 46.9105 10.36C46.8305 9.93 46.7105 9.595 46.5505 9.355C46.4205 9.155 46.2405 9.005 46.0105 8.905C45.7805 8.805 45.5055 8.755 45.1855 8.755C44.8655 8.755 44.5905 8.805 44.3605 8.905C44.1405 9.005 43.9605 9.155 43.8205 9.355C43.5005 9.845 43.3405 10.71 43.3405 11.95C43.3405 13.19 43.5005 14.055 43.8205 14.545ZM52.9067 7.9V11.92C52.9067 12.56 52.9217 13.04 52.9517 13.36C52.9817 13.68 53.0267 13.935 53.0867 14.125C53.1667 14.365 53.2967 14.55 53.4767 14.68C53.6667 14.8 53.8567 14.86 54.0467 14.86C54.3167 14.86 54.5617 14.81 54.7817 14.71C55.0017 14.61 55.2067 14.475 55.3967 14.305C55.8067 13.935 56.0317 13.36 56.0717 12.58V9.025L54.7667 8.74V7.9H57.9767V14.875L59.1317 15.16V16L56.3567 16.15L56.1917 14.5H56.1317C55.8417 15.01 55.4467 15.415 54.9467 15.715C54.4467 16.005 53.9117 16.15 53.3417 16.15C52.9617 16.15 52.6117 16.08 52.2917 15.94C51.9817 15.79 51.7367 15.59 51.5567 15.34C51.3667 15.06 51.2267 14.665 51.1367 14.155C51.0467 13.645 51.0017 12.965 51.0017 12.115V9.025L49.9967 8.74V7.9H52.9067ZM61.0419 14.875V9.025L59.8869 8.74V7.9H62.4969L62.8269 9.4H62.8869C63.1869 8.89 63.5919 8.49 64.1019 8.2C64.6119 7.9 65.1569 7.75 65.7369 7.75C66.5669 7.75 67.1819 8.02 67.5819 8.56C67.7819 8.84 67.9219 9.235 68.0019 9.745C68.0919 10.245 68.1369 10.925 68.1369 11.785V14.875L69.2919 15.16V16H65.2269V15.16L66.2319 14.875V11.98C66.2319 11.38 66.2119 10.915 66.1719 10.585C66.1419 10.245 66.0819 9.975 65.9919 9.775C65.8819 9.515 65.7319 9.335 65.5419 9.235C65.3519 9.135 65.1269 9.085 64.8669 9.085C64.3769 9.085 63.9619 9.245 63.6219 9.565C63.2119 9.945 62.9869 10.53 62.9469 11.32V14.875L63.9519 15.16V16H59.8869V15.16L61.0419 14.875ZM77.4493 16.09C77.4493 17.01 77.1193 17.685 76.4593 18.115C75.7993 18.545 74.7493 18.76 73.3093 18.76C72.6693 18.76 72.0843 18.7 71.5543 18.58C71.0343 18.46 70.6193 18.26 70.3093 17.98C69.9993 17.71 69.8443 17.34 69.8443 16.87C69.8443 16.41 69.9893 16.04 70.2793 15.76C70.5693 15.48 70.9993 15.33 71.5693 15.31V15.25C70.8093 15.04 70.4293 14.66 70.4293 14.11C70.4293 13.91 70.4793 13.7 70.5793 13.48C70.6793 13.26 70.8443 13.065 71.0743 12.895C71.3043 12.725 71.6043 12.615 71.9743 12.565C71.4443 12.435 71.0293 12.17 70.7293 11.77C70.4293 11.36 70.2793 10.88 70.2793 10.33C70.2793 9.53 70.5493 8.9 71.0893 8.44C71.6293 7.98 72.4043 7.75 73.4143 7.75C74.0843 7.75 74.6093 7.81 74.9893 7.93C75.3693 8.04 75.7043 8.21 75.9943 8.44L76.5043 8.26L77.8843 7.6H78.1393V9.145H77.8843L76.8343 9.025H76.4593C76.6593 9.335 76.7593 9.74 76.7593 10.24C76.7593 11.06 76.5043 11.71 75.9943 12.19C75.4843 12.66 74.7493 12.895 73.7893 12.895C73.6893 12.895 73.5893 12.895 73.4893 12.895C73.3893 12.885 73.2893 12.875 73.1893 12.865C72.7993 12.915 72.4843 13.005 72.2443 13.135C72.0143 13.255 71.8993 13.43 71.8993 13.66C71.8993 13.84 71.9943 13.965 72.1843 14.035C72.3743 14.095 72.7193 14.125 73.2193 14.125H74.9593C75.7793 14.125 76.3993 14.29 76.8193 14.62C77.2393 14.94 77.4493 15.43 77.4493 16.09ZM73.8493 15.505H73.3243C72.6543 15.505 72.1693 15.61 71.8693 15.82C71.5693 16.03 71.4193 16.305 71.4193 16.645C71.4193 17.405 72.1343 17.785 73.5643 17.785C74.3343 17.785 74.9193 17.67 75.3193 17.44C75.7193 17.22 75.9193 16.895 75.9193 16.465C75.9193 16.115 75.7643 15.87 75.4543 15.73C75.1443 15.58 74.6093 15.505 73.8493 15.505ZM72.0493 10.27C72.0493 10.83 72.1693 11.26 72.4093 11.56C72.6593 11.85 73.0043 11.995 73.4443 11.995C73.9743 11.995 74.3643 11.85 74.6143 11.56C74.8643 11.26 74.9893 10.83 74.9893 10.27C74.9893 9.74 74.8643 9.34 74.6143 9.07C74.3643 8.8 73.9743 8.665 73.4443 8.665C72.9943 8.665 72.6493 8.8 72.4093 9.07C72.1693 9.34 72.0493 9.74 72.0493 10.27ZM86.9821 15.16L87.8671 14.875L85.8871 12.235L85.0471 12.94V14.875L86.2021 15.16V16H81.9871V15.16L83.1421 14.875V5.425L81.9871 5.14V4.3H85.0471V11.77L87.5971 9.01L86.8171 8.74V7.9H90.4921V8.74L89.1721 9.025L87.1171 11.125L89.9221 14.905L90.7171 15.16V16H86.9821V15.16ZM92.4628 9.025L91.3078 8.74V7.9H94.3678V14.875L95.5228 15.16V16H91.3078V15.16L92.4628 14.875V9.025ZM92.2978 5.62C92.2978 5.3 92.3928 5.04 92.5828 4.84C92.7828 4.64 93.0578 4.54 93.4078 4.54C93.7578 4.54 94.0328 4.64 94.2328 4.84C94.4328 5.04 94.5328 5.3 94.5328 5.62C94.5328 5.93 94.4328 6.185 94.2328 6.385C94.0428 6.585 93.7678 6.685 93.4078 6.685C93.0478 6.685 92.7728 6.59 92.5828 6.4C92.3928 6.2 92.2978 5.94 92.2978 5.62ZM97.4286 14.875V9.025L96.2736 8.74V7.9H98.8836L99.2136 9.4H99.2736C99.5636 8.9 99.9486 8.5 100.429 8.2C100.919 7.9 101.439 7.75 101.989 7.75C102.399 7.75 102.764 7.83 103.084 7.99C103.404 8.14 103.639 8.33 103.789 8.56C103.949 8.81 104.079 9.14 104.179 9.55C104.499 8.99 104.914 8.55 105.424 8.23C105.934 7.91 106.479 7.75 107.059 7.75C107.459 7.75 107.819 7.83 108.139 7.99C108.459 8.14 108.704 8.35 108.874 8.62C108.994 8.81 109.089 9.055 109.159 9.355C109.229 9.655 109.279 10.045 109.309 10.525C109.339 10.995 109.354 11.595 109.354 12.325V14.875L110.509 15.16V16H106.444V15.16L107.449 14.875V11.98C107.449 11.33 107.429 10.85 107.389 10.54C107.349 10.22 107.289 9.965 107.209 9.775C107.109 9.535 106.974 9.37 106.804 9.28C106.644 9.18 106.474 9.13 106.294 9.13C106.044 9.13 105.814 9.165 105.604 9.235C105.404 9.305 105.209 9.425 105.019 9.595C104.799 9.795 104.634 10.03 104.524 10.3C104.424 10.57 104.364 10.91 104.344 11.32V14.875L105.349 15.16V16H101.434V15.16L102.439 14.875V11.98C102.439 11.33 102.419 10.85 102.379 10.54C102.339 10.22 102.279 9.965 102.199 9.775C102.099 9.535 101.964 9.37 101.794 9.28C101.634 9.18 101.464 9.13 101.284 9.13C101.034 9.13 100.804 9.165 100.594 9.235C100.394 9.305 100.199 9.425 100.009 9.595C99.7886 9.795 99.6236 10.03 99.5136 10.3C99.4136 10.57 99.3536 10.91 99.3336 11.32V14.875L100.339 15.16V16H96.2736V15.16L97.4286 14.875Z" fill="#303030"/>
<g clip-path="url(#clip0_174_1700)">
<path fill-rule="evenodd" clip-rule="evenodd" d="M14.6009 1.39177C14.622 1.39722 14.6434 1.40103 14.6648 1.40323L14.6009 1.39177ZM14.7518 1.41883L14.7664 1.40164C14.7329 1.40615 14.6987 1.4067 14.6648 1.40323L14.7518 1.41883ZM15.6873 1.58659L14.7518 1.41883C14.5572 1.64801 14.3572 1.87335 14.1537 2.10214C13.6259 2.67446 13.1617 3.30014 12.7687 3.96865C12.1475 5.10623 11.9336 6.60274 12.6505 7.7532C13.0427 8.38274 13.6657 8.74904 14.3732 8.95705C14.4767 8.98819 14.5806 9.01738 14.6851 9.04462C14.6074 9.21573 14.5291 9.38656 14.4502 9.55712C13.4072 11.8045 12.256 14.0016 11.0008 16.1411C10.6564 15.5511 10.3199 14.9566 9.99128 14.3578C9.03178 12.6207 8.14096 10.8485 7.32071 9.04501C7.96341 8.88537 8.5907 8.64419 9.03612 8.14893C9.9144 7.16966 9.95193 5.6713 9.46212 4.50796C9.09785 3.71852 8.61242 2.98848 8.02273 2.34325C7.88058 2.17668 7.73745 2.01154 7.5941 1.84613C7.46738 1.69991 7.34048 1.55349 7.21391 1.40569C7.27024 1.41412 7.32825 1.41131 7.38437 1.39681C7.4893 1.36971 7.57948 1.30386 7.63604 1.21303C7.68861 1.11979 7.70233 1.01022 7.67434 0.907271C7.64636 0.804324 7.57883 0.716 7.48591 0.660812L7.50656 0.657131L6.98672 0.368135C6.80636 0.251666 6.61828 0.147126 6.42373 0.05521C6.36794 0.0323475 6.30853 0.0204604 6.2488 0.0198041C6.02044 -0.0289101 5.73735 0.121006 5.7152 0.384875L5.69746 0.40495L5.32213 0.857771C5.24801 0.93609 5.20533 1.03811 5.20203 1.14493C5.20289 1.25278 5.24588 1.35621 5.32213 1.43392C5.40089 1.50871 5.50621 1.55052 5.61583 1.55052C5.72545 1.55052 5.83077 1.50871 5.90952 1.43392L6.06236 1.24885C6.2591 1.5545 6.50821 1.83603 6.7459 2.10465C6.81388 2.18147 6.88092 2.25724 6.94553 2.33221C7.42747 2.85225 7.87027 3.40592 8.27045 3.98887C8.87285 4.9258 9.25569 6.19775 8.67768 7.23777C8.3624 7.80472 7.8163 8.05874 7.20076 8.21888C7.12636 8.23957 7.05168 8.25914 6.97676 8.27759C6.61187 7.45128 6.2617 6.6186 5.92645 5.77993C5.41849 4.50308 4.94556 3.21381 4.50767 1.9121C4.52268 1.91569 4.5379 1.91847 4.55328 1.92041C4.60839 1.92736 4.66437 1.92343 4.71791 1.90885C4.77054 1.89481 4.81981 1.87068 4.86287 1.83785C4.90594 1.80503 4.94195 1.76416 4.96882 1.71761C4.9957 1.67105 5.0129 1.61974 5.01943 1.56663C5.02597 1.51351 5.02172 1.45966 5.00691 1.40817L4.96563 1.31245C4.93154 1.25461 4.88336 1.20603 4.82547 1.17104C4.49772 0.915346 4.20261 0.621672 3.9466 0.296365L3.86215 0.231939L3.75331 0.18408C3.66343 0.16124 3.56837 0.168363 3.48307 0.204328C3.40956 0.235761 3.34669 0.287077 3.30183 0.352272C3.25696 0.417468 3.23195 0.493848 3.22972 0.572475C3.22972 0.642253 3.2214 0.712031 3.21189 0.781809C3.18004 1.00167 3.13206 1.21899 3.06833 1.4321C3.03797 1.53682 3.05126 1.64908 3.10529 1.74418C3.15931 1.83928 3.24964 1.90944 3.3564 1.93922C3.44912 1.96509 3.54765 1.95865 3.63548 1.92179C4.37448 4.12819 5.21263 6.30134 6.14746 8.43487C5.78305 8.48378 5.41508 8.50701 5.04636 8.5042C4.34512 8.50455 3.65535 8.3297 3.04209 7.99615C2.9083 7.93307 2.79052 7.84152 2.69735 7.72816C2.60418 7.6148 2.53795 7.48248 2.50349 7.34085C2.46022 7.10556 2.48375 6.86069 2.50698 6.61886C2.51901 6.49366 2.53096 6.36927 2.53352 6.24745C2.54508 5.46727 2.39765 4.69268 2.09988 3.96914C1.92349 3.54054 1.69646 3.13497 1.42416 2.76046L1.55575 2.77031C1.66556 2.76965 1.77071 2.72668 1.84851 2.65066C1.88722 2.61311 1.91794 2.56839 1.93888 2.51909C1.95982 2.4698 1.97056 2.41691 1.97049 2.36351C1.97061 2.30983 1.95989 2.25665 1.93895 2.20705C1.91801 2.15745 1.88728 2.11241 1.84851 2.07451C1.76839 2.00223 1.66455 1.96044 1.55575 1.95671L0.523593 1.87939C0.413439 1.87928 0.30764 1.92159 0.228959 1.9972L0.165153 2.08003C0.142353 2.11845 0.126225 2.16011 0.117234 2.2033C0.0939472 2.26301 0.0848824 2.32753 0.0947893 2.39227L7.11073e-06 3.10717C-0.000315006 3.16088 0.0103099 3.21411 0.0312576 3.26374C0.0522053 3.31337 0.0830533 3.35839 0.12199 3.39616C0.199966 3.4717 0.30515 3.51406 0.414747 3.51406C0.524345 3.51406 0.629528 3.4717 0.707505 3.39616L0.775065 3.31333C0.779448 3.30598 0.783585 3.29852 0.787472 3.29095C1.02534 3.62879 1.2209 3.99478 1.36908 4.38114C1.62357 5.04466 1.73259 5.75335 1.68903 6.46098C1.68508 6.52157 1.68041 6.58233 1.67573 6.64318C1.64929 6.98716 1.62263 7.33407 1.72468 7.67034C1.84977 8.04776 2.10188 8.37229 2.43969 8.59071C3.074 9.03801 3.88846 9.23497 4.65414 9.30308C5.26991 9.34674 5.88818 9.31814 6.49588 9.21831C6.59774 9.44399 6.70069 9.66922 6.80472 9.89398C7.92061 12.3063 9.16068 14.6611 10.52 16.9492C10.32 17.2809 10.1175 17.6111 9.91244 17.9398C8.96661 19.4566 7.96948 20.9396 6.92106 22.3889C6.86802 22.482 6.85403 22.5918 6.88205 22.6948C6.91008 22.7979 6.97791 22.8863 7.07119 22.9411C7.16623 22.9919 7.27748 23.0052 7.38214 22.9781C7.48681 22.9511 7.57698 22.8858 7.63419 22.7957C8.82155 21.1541 9.94356 19.4685 10.9978 17.7427C11.115 17.9347 11.233 18.1262 11.3519 18.3172C12.3014 19.845 13.3023 21.3391 14.3545 22.7994C14.4123 22.8888 14.5025 22.9535 14.6069 22.9805C14.7113 23.0075 14.8223 22.9947 14.9175 22.9448C15.0104 22.8896 15.0779 22.8012 15.1056 22.6981C15.1332 22.5951 15.1189 22.4855 15.0657 22.3926C13.7927 20.6267 12.5956 18.8098 11.4776 16.9466C11.9179 16.2061 12.3458 15.4584 12.7612 14.7038C13.7472 12.9098 14.6615 11.0792 15.5022 9.21629C15.9135 9.28226 16.3295 9.31873 16.7472 9.32519C17.5484 9.34066 18.343 9.17963 19.0724 8.85396C19.4081 8.71159 19.7075 8.49782 19.9488 8.22811C20.2113 7.89665 20.3444 7.48405 20.3241 7.06477C20.3241 6.89087 20.3132 6.71819 20.3023 6.54561C20.2865 6.29438 20.2706 6.04338 20.2884 5.78914C20.3171 5.39874 20.3933 5.01312 20.5155 4.64052C20.6738 4.15038 20.9077 3.68875 21.2074 3.27108C21.2276 3.31674 21.2556 3.35911 21.2907 3.39617C21.3689 3.47183 21.4744 3.51424 21.5844 3.51424C21.6943 3.51424 21.7998 3.47183 21.878 3.39617C21.9173 3.3587 21.9482 3.31369 21.9688 3.26396C21.9895 3.21424 21.9995 3.16086 21.9982 3.10718L21.8931 2.28621C21.8895 2.17855 21.8462 2.07582 21.7711 1.99721C21.7327 1.95949 21.687 1.92965 21.6368 1.90942C21.5865 1.8892 21.5326 1.87899 21.4783 1.87941L20.4443 1.95672C20.3898 1.95647 20.3357 1.96683 20.2853 1.98719C20.2348 2.00754 20.189 2.0375 20.1505 2.07532C20.1119 2.11315 20.0814 2.15809 20.0606 2.20756C20.0399 2.25702 20.0293 2.31003 20.0295 2.36352C20.0302 2.47123 20.074 2.57436 20.1515 2.65068C20.1898 2.68864 20.2354 2.71877 20.2857 2.73931C20.3359 2.75985 20.3898 2.77039 20.4443 2.77032L20.5623 2.7615C19.9262 3.63641 19.5421 4.67055 19.4608 5.75416C19.4424 6.09781 19.4493 6.44231 19.4815 6.78498C19.5059 7.11447 19.5284 7.46605 19.2938 7.72928C18.8697 8.2005 18.0815 8.39746 17.4735 8.46557C16.9316 8.52426 16.3851 8.51611 15.8467 8.4418C16.196 7.64484 16.5319 6.84211 16.8542 6.03396C17.398 4.67385 17.9015 3.30029 18.3646 1.91325C18.4488 1.94686 18.5423 1.95258 18.6308 1.92875C18.7347 1.90077 18.8234 1.83426 18.8781 1.74329C18.9329 1.65232 18.9494 1.54402 18.9242 1.44131C18.8654 1.24571 18.8206 1.04636 18.7902 0.844701C18.779 0.757029 18.7697 0.669357 18.7647 0.581684C18.7621 0.502908 18.7367 0.426482 18.6915 0.361305C18.6463 0.296128 18.5832 0.244883 18.5095 0.213537C18.4422 0.184828 18.3682 0.174646 18.2955 0.184085C18.2048 0.191919 18.1201 0.231825 18.0572 0.29637C17.8016 0.6202 17.5076 0.912921 17.1816 1.16839C17.1627 1.18088 17.1449 1.19464 17.1283 1.20954L17.1281 1.20974L16.7849 1.23446C16.7912 1.20555 16.7945 1.17585 16.7945 1.14584C16.7945 1.03872 16.7528 0.935659 16.6778 0.857762L16.3025 0.415986L16.2603 0.366365C16.2333 0.0867365 15.9097 -0.0629832 15.676 0.0221755C15.6421 0.0270744 15.6086 0.0356383 15.5762 0.0478382C15.3871 0.138176 15.2041 0.240236 15.0282 0.3534L14.499 0.657122C14.4061 0.71231 14.3386 0.800634 14.3106 0.90358C14.2826 1.00653 14.2963 1.1161 14.3489 1.20934C14.4061 1.29947 14.4963 1.36473 14.6009 1.39177L15.8935 1.29866C15.8294 1.39673 15.7601 1.4926 15.6873 1.58659ZM17.1661 1.85179L15.6873 1.58659C15.5106 1.81491 15.3136 2.0321 15.1228 2.24263L15.1228 2.24265L15.1228 2.24266L15.1227 2.2427L15.1227 2.24271L15.1227 2.24271L15.1227 2.24272L15.1227 2.24272L15.1225 2.24295C15.0251 2.35034 14.9294 2.45598 14.8386 2.56049C14.3026 3.13348 13.836 3.76537 13.448 4.44356C12.9639 5.36025 12.7799 6.68558 13.5081 7.53968C13.8857 7.98386 14.4626 8.16172 15.0246 8.28551C15.9447 6.19772 16.7698 4.07087 17.4976 1.91123L17.1281 1.20974C17.0684 1.26337 17.0236 1.33167 16.9988 1.40817C16.9704 1.51458 16.9859 1.62768 17.0419 1.72294C17.0734 1.77484 17.116 1.81866 17.1661 1.85179ZM17.1661 1.85179C17.2036 1.87654 17.2452 1.89531 17.2896 1.90701C17.3428 1.92209 17.3986 1.92627 17.4535 1.9193C17.4683 1.91741 17.483 1.91471 17.4976 1.91123L17.1661 1.85179ZM15.9739 1.29287L16.7849 1.23446C16.7685 1.30873 16.7318 1.37784 16.6778 1.43391C16.5995 1.50957 16.494 1.55198 16.3841 1.55198C16.2742 1.55198 16.1687 1.50957 16.0904 1.43391L15.9739 1.29287ZM15.9739 1.29287L15.9307 1.24052C15.9185 1.25999 15.9061 1.27937 15.8935 1.29866L15.9739 1.29287Z" fill="#303030"/>
</g>
<defs>
<clipPath id="clip0_174_1700">
<rect width="22" height="23" fill="white"/>
</clipPath>
</defs>
</svg>
